<mxfile host="app.diagrams.net" agent="Mozilla/5.0 (Windows NT 10.0; Win64; x64; rv:135.0) Gecko/20100101 Firefox/135.0" version="26.0.11" pages="2">
  <diagram name="capteur lineaire" id="pnvE5mpPbL_QDSrJuAXr">
    <mxGraphModel dx="2589" dy="2358" grid="1" gridSize="10" guides="1" tooltips="1" connect="1" arrows="1" fold="1" page="1" pageScale="1" pageWidth="1169" pageHeight="1654" math="0" shadow="0">
      <root>
        <mxCell id="0" />
        <mxCell id="1" parent="0" />
        <mxCell id="EWrgPkCYN8w85hfrx8X--12" value="" style="group" vertex="1" connectable="0" parent="1">
          <mxGeometry x="-950" y="-450" width="240" height="206" as="geometry" />
        </mxCell>
        <mxCell id="EWrgPkCYN8w85hfrx8X--2" value="" style="endArrow=classic;startArrow=classic;html=1;rounded=0;strokeWidth=1.5748;" edge="1" parent="EWrgPkCYN8w85hfrx8X--12">
          <mxGeometry width="50" height="50" relative="1" as="geometry">
            <mxPoint x="230" y="170" as="sourcePoint" />
            <mxPoint x="30" y="10" as="targetPoint" />
            <Array as="points">
              <mxPoint x="30" y="170" />
            </Array>
          </mxGeometry>
        </mxCell>
        <mxCell id="EWrgPkCYN8w85hfrx8X--3" value="" style="endArrow=none;html=1;rounded=0;fillColor=#0050ef;strokeColor=#001DBC;strokeWidth=1.5748;" edge="1" parent="EWrgPkCYN8w85hfrx8X--12">
          <mxGeometry width="50" height="50" relative="1" as="geometry">
            <mxPoint x="30" y="150" as="sourcePoint" />
            <mxPoint x="220" y="20" as="targetPoint" />
          </mxGeometry>
        </mxCell>
        <mxCell id="EWrgPkCYN8w85hfrx8X--4" value="&lt;b&gt;S&lt;/b&gt;" style="text;html=1;align=center;verticalAlign=middle;resizable=0;points=[];autosize=1;strokeColor=none;fillColor=none;strokeWidth=1.5748;" vertex="1" parent="EWrgPkCYN8w85hfrx8X--12">
          <mxGeometry width="30" height="30" as="geometry" />
        </mxCell>
        <mxCell id="EWrgPkCYN8w85hfrx8X--5" value="&lt;b&gt;E&lt;/b&gt;" style="text;html=1;align=center;verticalAlign=middle;resizable=0;points=[];autosize=1;strokeColor=none;fillColor=none;strokeWidth=1.5748;" vertex="1" parent="EWrgPkCYN8w85hfrx8X--12">
          <mxGeometry x="210" y="140" width="30" height="30" as="geometry" />
        </mxCell>
        <mxCell id="EWrgPkCYN8w85hfrx8X--6" value="Caractéristique d&#39;un capteur linéaire" style="text;html=1;align=center;verticalAlign=middle;resizable=0;points=[];autosize=1;strokeColor=none;fillColor=none;fontStyle=2" vertex="1" parent="EWrgPkCYN8w85hfrx8X--12">
          <mxGeometry x="14" y="176" width="220" height="30" as="geometry" />
        </mxCell>
        <mxCell id="EWrgPkCYN8w85hfrx8X--14" value="" style="endArrow=classic;startArrow=classic;html=1;rounded=0;strokeWidth=1.5748;" edge="1" parent="1">
          <mxGeometry width="50" height="50" relative="1" as="geometry">
            <mxPoint x="-440" y="-280" as="sourcePoint" />
            <mxPoint x="-640" y="-440" as="targetPoint" />
            <Array as="points">
              <mxPoint x="-640" y="-280" />
            </Array>
          </mxGeometry>
        </mxCell>
        <mxCell id="EWrgPkCYN8w85hfrx8X--15" value="" style="endArrow=none;html=1;rounded=0;fillColor=#0050ef;strokeColor=#001DBC;strokeWidth=1.5748;curved=1;" edge="1" parent="1">
          <mxGeometry width="50" height="50" relative="1" as="geometry">
            <mxPoint x="-640" y="-300" as="sourcePoint" />
            <mxPoint x="-450" y="-430" as="targetPoint" />
            <Array as="points">
              <mxPoint x="-570" y="-420" />
            </Array>
          </mxGeometry>
        </mxCell>
        <mxCell id="EWrgPkCYN8w85hfrx8X--16" value="&lt;b&gt;S&lt;/b&gt;" style="text;html=1;align=center;verticalAlign=middle;resizable=0;points=[];autosize=1;strokeColor=none;fillColor=none;strokeWidth=1.5748;" vertex="1" parent="1">
          <mxGeometry x="-670" y="-450" width="30" height="30" as="geometry" />
        </mxCell>
        <mxCell id="EWrgPkCYN8w85hfrx8X--17" value="&lt;b&gt;E&lt;/b&gt;" style="text;html=1;align=center;verticalAlign=middle;resizable=0;points=[];autosize=1;strokeColor=none;fillColor=none;strokeWidth=1.5748;" vertex="1" parent="1">
          <mxGeometry x="-460" y="-310" width="30" height="30" as="geometry" />
        </mxCell>
        <mxCell id="EWrgPkCYN8w85hfrx8X--18" value="Caractéristique d&#39;un capteur &lt;b&gt;NON &lt;/b&gt;linéaire" style="text;html=1;align=center;verticalAlign=middle;resizable=0;points=[];autosize=1;strokeColor=none;fillColor=none;fontStyle=2" vertex="1" parent="1">
          <mxGeometry x="-663" y="-274" width="250" height="30" as="geometry" />
        </mxCell>
      </root>
    </mxGraphModel>
  </diagram>
  <diagram id="sgcvP4Xr_m1Tus5AOKFb" name="sensibilité">
    <mxGraphModel dx="2589" dy="2358" grid="1" gridSize="10" guides="1" tooltips="1" connect="1" arrows="1" fold="1" page="1" pageScale="1" pageWidth="1169" pageHeight="1654" math="0" shadow="0">
      <root>
        <mxCell id="0" />
        <mxCell id="1" parent="0" />
        <mxCell id="PU5bH5FZVr4U7lg9v13t-2" value="" style="endArrow=classic;startArrow=classic;html=1;rounded=0;strokeWidth=1.5748;" edge="1" parent="1">
          <mxGeometry width="50" height="50" relative="1" as="geometry">
            <mxPoint x="-360" y="-80" as="sourcePoint" />
            <mxPoint x="-600" y="-280" as="targetPoint" />
            <Array as="points">
              <mxPoint x="-600" y="-80" />
            </Array>
          </mxGeometry>
        </mxCell>
        <mxCell id="PU5bH5FZVr4U7lg9v13t-4" value="&lt;b&gt;S&lt;/b&gt;" style="text;html=1;align=center;verticalAlign=middle;resizable=0;points=[];autosize=1;strokeColor=none;fillColor=none;strokeWidth=1.5748;" vertex="1" parent="1">
          <mxGeometry x="-630" y="-290" width="30" height="30" as="geometry" />
        </mxCell>
        <mxCell id="PU5bH5FZVr4U7lg9v13t-5" value="&lt;b&gt;E&lt;/b&gt;" style="text;html=1;align=center;verticalAlign=middle;resizable=0;points=[];autosize=1;strokeColor=none;fillColor=none;strokeWidth=1.5748;" vertex="1" parent="1">
          <mxGeometry x="-380" y="-115" width="30" height="30" as="geometry" />
        </mxCell>
        <mxCell id="PU5bH5FZVr4U7lg9v13t-8" value="" style="rounded=0;whiteSpace=wrap;html=1;fillColor=#bac8d3;strokeColor=#23445d;" vertex="1" parent="1">
          <mxGeometry x="-489" y="-150" width="50" height="69" as="geometry" />
        </mxCell>
        <mxCell id="PU5bH5FZVr4U7lg9v13t-9" value="" style="rounded=0;whiteSpace=wrap;html=1;fillColor=#bac8d3;strokeColor=#23445d;" vertex="1" parent="1">
          <mxGeometry x="-599" y="-165" width="160" height="20" as="geometry" />
        </mxCell>
        <mxCell id="PU5bH5FZVr4U7lg9v13t-3" value="" style="endArrow=none;html=1;rounded=0;fillColor=#0050ef;strokeColor=#001DBC;strokeWidth=1.5748;" edge="1" parent="1">
          <mxGeometry width="50" height="50" relative="1" as="geometry">
            <mxPoint x="-600" y="-100" as="sourcePoint" />
            <mxPoint x="-370" y="-190" as="targetPoint" />
          </mxGeometry>
        </mxCell>
        <mxCell id="PU5bH5FZVr4U7lg9v13t-12" value="" style="rounded=0;whiteSpace=wrap;html=1;fillColor=#bac8d3;strokeColor=none;" vertex="1" parent="1">
          <mxGeometry x="-599" y="-260" width="160" height="40" as="geometry" />
        </mxCell>
        <mxCell id="PU5bH5FZVr4U7lg9v13t-7" value="" style="endArrow=none;html=1;rounded=0;fillColor=#d80073;strokeColor=#A50040;strokeWidth=1.5748;" edge="1" parent="1">
          <mxGeometry width="50" height="50" relative="1" as="geometry">
            <mxPoint x="-600" y="-136" as="sourcePoint" />
            <mxPoint x="-400" y="-290" as="targetPoint" />
          </mxGeometry>
        </mxCell>
        <mxCell id="PU5bH5FZVr4U7lg9v13t-13" value="" style="rounded=0;whiteSpace=wrap;html=1;fillColor=#bac8d3;strokeColor=none;" vertex="1" parent="1">
          <mxGeometry x="-489" y="-220" width="50" height="55" as="geometry" />
        </mxCell>
        <mxCell id="PU5bH5FZVr4U7lg9v13t-14" value="&lt;span class=&quot;NA6bn BxUVEf ILfuVd&quot; lang=&quot;fr&quot;&gt;&lt;span class=&quot;hgKElc&quot;&gt;&lt;b&gt;ΔE&lt;/b&gt;&lt;/span&gt;&lt;/span&gt;" style="text;html=1;align=center;verticalAlign=middle;resizable=0;points=[];autosize=1;strokeColor=none;fillColor=none;fontSize=15;" vertex="1" parent="1">
          <mxGeometry x="-485" y="-73" width="40" height="30" as="geometry" />
        </mxCell>
        <mxCell id="PU5bH5FZVr4U7lg9v13t-15" value="" style="endArrow=classic;startArrow=classic;html=1;rounded=0;dashed=1;dashPattern=1 2;" edge="1" parent="1">
          <mxGeometry width="50" height="50" relative="1" as="geometry">
            <mxPoint x="-490" y="-68.8975" as="sourcePoint" />
            <mxPoint x="-440" y="-69" as="targetPoint" />
          </mxGeometry>
        </mxCell>
        <mxCell id="PU5bH5FZVr4U7lg9v13t-17" value="" style="endArrow=classic;startArrow=classic;html=1;rounded=0;dashed=1;dashPattern=1 2;strokeColor=#001DBC;" edge="1" parent="1">
          <mxGeometry width="50" height="50" relative="1" as="geometry">
            <mxPoint x="-614" y="-141" as="sourcePoint" />
            <mxPoint x="-614.5" y="-167.35399999999998" as="targetPoint" />
          </mxGeometry>
        </mxCell>
        <mxCell id="PU5bH5FZVr4U7lg9v13t-18" value="&lt;span lang=&quot;fr&quot; class=&quot;NA6bn BxUVEf ILfuVd&quot;&gt;&lt;span class=&quot;hgKElc&quot;&gt;&lt;b&gt;ΔS&lt;sub&gt;1&lt;/sub&gt;&lt;/b&gt;&lt;/span&gt;&lt;/span&gt;" style="text;html=1;align=center;verticalAlign=middle;resizable=0;points=[];autosize=1;strokeColor=none;fillColor=none;fontSize=15;fontColor=#001DBC;" vertex="1" parent="1">
          <mxGeometry x="-730" y="-111" width="50" height="30" as="geometry" />
        </mxCell>
        <mxCell id="PU5bH5FZVr4U7lg9v13t-19" value="Capteur 1" style="text;html=1;align=center;verticalAlign=middle;resizable=0;points=[];autosize=1;strokeColor=none;fillColor=none;fontColor=#001DBC;" vertex="1" parent="1">
          <mxGeometry x="-400" y="-190" width="80" height="30" as="geometry" />
        </mxCell>
        <mxCell id="PU5bH5FZVr4U7lg9v13t-20" value="Capteur 2" style="text;html=1;align=center;verticalAlign=middle;resizable=0;points=[];autosize=1;strokeColor=none;fillColor=none;fontColor=light-dark(#A50040,#EDEDED);" vertex="1" parent="1">
          <mxGeometry x="-420" y="-290" width="80" height="30" as="geometry" />
        </mxCell>
        <mxCell id="PU5bH5FZVr4U7lg9v13t-21" value="" style="endArrow=classic;startArrow=classic;html=1;rounded=0;dashed=1;dashPattern=1 2;strokeColor=#A50040;" edge="1" parent="1">
          <mxGeometry width="50" height="50" relative="1" as="geometry">
            <mxPoint x="-616" y="-221" as="sourcePoint" />
            <mxPoint x="-616" y="-262.65299999999996" as="targetPoint" />
          </mxGeometry>
        </mxCell>
        <mxCell id="PU5bH5FZVr4U7lg9v13t-22" value="&lt;span class=&quot;NA6bn BxUVEf ILfuVd&quot; lang=&quot;fr&quot;&gt;&lt;span class=&quot;hgKElc&quot;&gt;&lt;b&gt;ΔS&lt;sub&gt;1&lt;/sub&gt;&lt;/b&gt;&lt;/span&gt;&lt;/span&gt;" style="text;html=1;align=center;verticalAlign=middle;resizable=0;points=[];autosize=1;strokeColor=none;fillColor=none;fontSize=13;fontColor=#A50040;" vertex="1" parent="1">
          <mxGeometry x="-680" y="-250" width="50" height="30" as="geometry" />
        </mxCell>
      </root>
    </mxGraphModel>
  </diagram>
</mxfile>
